<svg xmlns="http://www.w3.org/2000/svg" version="1.1" xmlns:xlink="http://www.w3.org/1999/xlink" xmlns:svgjs="http://svgjs.com/svgjs" width="512" height="512" x="0" y="0" viewBox="0 0 505 505" style="enable-background:new 0 0 512 512" xml:space="preserve" class=""><g><g><circle cx="253.5" cy="229.375" r="69.375" fill="#ffffff" data-original="#000000"></circle><path d="m145.644 380.102c-11.216 17.525-17.144 37.786-17.144 58.591v66.307h250v-66.307c0-20.806-5.928-41.066-17.144-58.592-20.078-31.372-54.302-50.101-91.549-50.101h-32.614c-37.247 0-71.471 18.729-91.549 50.102z" fill="#ffffff" data-original="#000000"></path><path d="m477.5 270.181v-90.362l-54.624-13.005c-2.464-7.21-5.395-14.275-8.766-21.131l29.436-47.834-63.896-63.896-47.834 29.437c-6.855-3.371-13.92-6.302-21.13-8.766l-13.005-54.624h-90.361l-13.006 54.624c-7.21 2.464-14.275 5.395-21.13 8.766l-47.834-29.437-63.897 63.896 29.436 47.834c-3.371 6.856-6.302 13.921-8.766 21.131l-54.623 13.004v90.362l54.624 13.006c2.464 7.21 5.395 14.275 8.766 21.131l-29.575 48.059 44.304 42.436c3.603-10.799 8.542-21.171 14.757-30.882 17.205-26.883 42.557-46.475 71.744-56.455-23.122-18.211-37.994-46.451-37.994-78.1 0-54.795 44.58-99.375 99.375-99.375s99.375 44.58 99.375 99.375c0 31.649-14.872 59.889-37.994 78.1 29.187 9.98 54.538 29.572 71.743 56.455 6.493 10.145 11.581 21.013 15.22 32.334-.001-.002-.001-.004-.002-.005l41.487-44.461-29.218-47.479c3.371-6.856 6.302-13.921 8.766-21.131z" fill="#ffffff" data-original="#000000"></path></g></g></svg>